<svg t="1587111982106" class="icon" viewBox="0 0 1024 1024" version="1.1" xmlns="http://www.w3.org/2000/svg" p-id="6267" width="250" height="250"><path d="M512 1013.12A501.12 501.12 0 1 1 1016.32 512 501.76 501.76 0 0 1 512 1013.12zM512 74.88A437.12 437.12 0 1 0 952.32 512 437.76 437.76 0 0 0 512 74.88z" p-id="6268" fill="#ffffff"></path><path d="M739.2 809.6h-448a57.6 57.6 0 0 1-55.68-59.52v-30.72a144 144 0 0 1 75.52-128l147.84-51.84a171.52 171.52 0 0 1 113.28 0l144 50.56a144 144 0 0 1 79.36 131.84v30.72a57.6 57.6 0 0 1-56.32 56.96z m-440.32-64h431.36v-26.24a80.64 80.64 0 0 0-39.68-72.96L550.4 597.12a108.16 108.16 0 0 0-71.04 0l-144 50.56a81.28 81.28 0 0 0-36.48 71.68z" p-id="6269" fill="#ffffff"></path><path d="M512 588.8a186.88 186.88 0 1 1 192-187.52A186.88 186.88 0 0 1 512 588.8z m0-310.4a122.88 122.88 0 1 0 128 122.88 122.88 122.88 0 0 0-128-122.88z" p-id="6270" fill="#ffffff"></path></svg>